<?xml version="1.0"?>
<svg xmlns="http://www.w3.org/2000/svg" viewBox="0 0 64 64" width="512" height="512"><title>Design-Service-Creative-consult-idea</title><g id="Flat"><path d="M51,29A19,19,0,1,0,25,46.652V51H39V46.652A18.994,18.994,0,0,0,51,29Z" style="fill:#f7931e"/><path d="M43.6,31.2l-4-3a1.006,1.006,0,0,0-.875-.162L32,29.96l-6.725-1.922a1.006,1.006,0,0,0-.875.162l-4,3,1.2,1.6,3.041-2.281L28,37.236V49h2V37a1,1,0,0,0-.105-.447l-2.984-5.967,4.814,1.376a1.008,1.008,0,0,0,.55,0l4.814-1.376L34.1,36.553A1,1,0,0,0,34,37V49h2V37.236l3.359-6.717L42.4,32.8Z" style="fill:#fbb03b"/><polygon points="29 23 20 23 20 26 16 23 7 23 7 7 29 7 29 23" style="fill:#f15a24"/><rect x="12" y="10" width="2" height="2" style="fill:#fbb03b"/><rect x="16" y="10" width="10" height="2" style="fill:#fbb03b"/><rect x="10" y="14" width="16" height="2" style="fill:#fbb03b"/><rect x="10" y="18" width="13" height="2" style="fill:#fbb03b"/><polygon points="57 33 47 33 43 36 43 33 35 33 35 17 57 17 57 33" style="fill:#56a8c6"/><rect x="40" y="20" width="2" height="2" style="fill:#80c5d4"/><rect x="44" y="20" width="10" height="2" style="fill:#80c5d4"/><rect x="38" y="24" width="16" height="2" style="fill:#80c5d4"/><rect x="38" y="28" width="13" height="2" style="fill:#80c5d4"/><rect x="23" y="49" width="18" height="4" style="fill:#6e6350"/><rect x="23" y="53" width="18" height="4" style="fill:#95866d"/><path d="M25,57H39a0,0,0,0,1,0,0v2a2,2,0,0,1-2,2H27a2,2,0,0,1-2-2V57A0,0,0,0,1,25,57Z" style="fill:#6e6350"/><path d="M8.022,30.043C8.008,29.7,8,29.35,8,29s.008-.7.022-1.043l2,.086C10.007,28.36,10,28.68,10,29s.007.64.021.957Z" style="fill:#b4b0aa"/><path d="M17.391,48.043A23.832,23.832,0,0,1,8.2,32.129l1.984-.258a21.842,21.842,0,0,0,8.423,14.586Z" style="fill:#b4b0aa"/><path d="M47.8,13.7a21.922,21.922,0,0,0-11.02-6.174l.432-1.953a23.9,23.9,0,0,1,12.025,6.737Z" style="fill:#b4b0aa"/></g></svg>
