<svg height="512" viewBox="0 0 64 64" width="512" xmlns="http://www.w3.org/2000/svg"><path d="m51 6v43h-38v-43a3 3 0 0 1 3-3h32a3 3 0 0 1 3 3z" fill="#2488ff"/><path d="m16 3a3 3 0 0 0 -3 3v39.565l32.633-42.565z" fill="#006df0"/><ellipse cx="32" cy="39.5" fill="#d80027" rx="7" ry="3.5"/><path d="m51 49v9a3 3 0 0 1 -3 3h-32a3 3 0 0 1 -3-3v-9z" fill="#acabb1"/><circle cx="32" cy="55" fill="#ffda44" r="3"/><path d="m32 10v29s11-11.925 11-18a11 11 0 0 0 -11-11z" fill="#ffda44"/><path d="m21 21c0 6.075 11 18 11 18v-29a11 11 0 0 0 -11 11z" fill="#ffe169"/><circle cx="32" cy="21" fill="#ff9811" r="7"/><path d="m33 18v2h-2v-2h-2v3 3h2v-2h2v1 1h2v-1-2-3z" fill="#fff"/></svg>